<?xml version="1.0" standalone="no"?>
<!DOCTYPE svg PUBLIC "-//W3C//DTD SVG 20010904//EN"
 "http://www.w3.org/TR/2001/REC-SVG-20010904/DTD/svg10.dtd">
<svg version="1.0" xmlns="http://www.w3.org/2000/svg"
 width="500.000000pt" height="500.000000pt" viewBox="0 0 500.000000 500.000000"
 preserveAspectRatio="xMidYMid meet">

<g transform="translate(0.000000,500.000000) scale(0.100000,-0.100000)"
fill="#000000" stroke="none">
<path d="M890 4406 c-156 -35 -280 -145 -337 -302 -17 -46 -18 -133 -18 -1609
l0 -1560 37 -78 c68 -143 195 -240 349 -266 93 -16 3085 -16 3178 0 168 28
297 133 362 294 l24 60 0 1555 c0 1283 -2 1561 -14 1590 -45 118 -108 199
-199 257 -29 19 -87 43 -129 53 -74 19 -120 20 -1637 19 -1188 -1 -1574 -4
-1616 -13z m2996 -383 c-15 -64 -105 -108 -166 -83 -37 15 -80 64 -80 91 0 18
8 19 126 19 l126 0 -6 -27z m264 22 c0 -7 -230 -285 -236 -285 -2 0 -4 65 -4
145 l0 145 120 0 c66 0 120 -2 120 -5z m-270 -225 l0 -140 -116 0 c-68 0 -114
4 -112 9 4 12 218 271 224 271 2 0 4 -63 4 -140z m-1889 97 c46 -31 61 -62 56
-121 -4 -40 -11 -55 -41 -83 -36 -34 -36 -35 -36 -114 l0 -79 -55 0 -55 0 0
89 c0 76 -3 92 -18 103 -41 29 -56 100 -33 155 14 36 74 72 117 73 17 0 46
-10 65 -23z m2122 -149 c20 -18 37 -44 39 -58 l3 -25 -122 -3 c-120 -3 -123
-2 -123 19 0 12 17 39 39 60 33 34 45 39 83 39 36 0 51 -6 81 -32z m-1668
-350 c42 -23 81 -66 99 -110 12 -28 16 -74 16 -187 l0 -150 -53 -25 c-74 -37
-147 -104 -201 -186 -25 -38 -46 -74 -46 -80 0 -6 -4 -18 -9 -28 -16 -30 -31
-109 -31 -166 l0 -56 -403 0 -403 0 -47 29 c-28 19 -54 46 -67 70 -19 38 -20
57 -20 406 0 300 3 371 14 394 20 38 80 89 114 97 15 3 32 7 37 9 6 2 226 3
490 2 426 -2 483 -4 510 -19z m-1245 -513 c0 -240 1 -237 -67 -215 -86 28
-113 79 -113 214 0 103 8 134 42 170 33 34 58 45 101 46 l37 0 0 -215z m1528
201 c52 -27 76 -74 80 -153 l4 -73 -91 0 -91 0 0 113 c0 63 3 117 7 120 11 12
63 8 91 -7z m1022 -322 c67 -38 113 -96 134 -168 23 -79 24 -777 1 -854 -22
-72 -70 -131 -135 -164 -53 -27 -61 -28 -207 -28 l-153 0 0 -145 c0 -80 -2
-145 -4 -145 -2 0 -12 -3 -21 -6 -11 -5 -57 34 -163 139 l-147 145 -230 4
c-256 5 -272 8 -347 76 -23 20 -52 61 -65 90 -23 52 -23 54 -23 463 l0 411 26
52 c28 56 54 87 98 119 65 46 69 47 641 44 l540 -2 55 -31z m-1438 -731 c4
-287 4 -288 30 -345 60 -129 178 -212 331 -233 l47 -6 0 -64 c0 -57 -3 -68
-29 -97 l-29 -33 -709 -3 c-389 -2 -723 0 -742 3 -20 4 -47 20 -63 37 l-28 30
0 407 c1 403 1 406 23 451 28 54 106 116 162 129 22 5 257 9 522 10 l481 1 4
-287z"/>
<path d="M1555 3077 c-19 -19 -37 -46 -40 -60 -10 -40 2 -76 40 -114 28 -28
40 -33 79 -33 114 0 164 140 75 214 -47 40 -110 37 -154 -7z"/>
<path d="M2142 3096 c-56 -30 -77 -107 -47 -166 32 -61 129 -80 182 -36 87 74
40 217 -70 216 -23 -1 -52 -6 -65 -14z"/>
<path d="M2939 2468 c-16 -30 -229 -560 -229 -570 0 -4 26 -8 59 -8 l58 0 17
48 c10 26 19 53 22 60 3 10 36 12 140 10 l137 -3 20 -57 21 -58 58 0 c63 0 66
4 44 53 -8 18 -26 64 -41 102 -15 39 -33 84 -40 100 -7 17 -41 101 -75 188
l-62 157 -59 0 c-49 0 -60 -3 -70 -22z m90 -153 c7 -22 16 -49 21 -60 4 -11
16 -40 25 -65 10 -25 19 -51 22 -57 4 -10 -18 -13 -91 -13 -53 0 -96 1 -96 3
0 3 64 181 79 221 13 34 22 27 40 -29z"/>
<path d="M3417 2484 c-4 -4 -7 -139 -7 -301 l0 -293 60 0 59 0 -2 298 -2 297
-50 3 c-28 2 -54 0 -58 -4z"/>
</g>
</svg>
